<?xml version="1.0" encoding="UTF-8" standalone="no"?>
<!DOCTYPE svg PUBLIC "-//W3C//DTD SVG 1.1//EN"
 "http://www.w3.org/Graphics/SVG/1.1/DTD/svg11.dtd">
<!-- Generated by graphviz version 2.40.1 (20161225.0304)
 -->
<!-- Title: 循环引用 Pages: 1 -->
<svg width="348pt" height="310pt"
 viewBox="0.00 0.00 348.23 310.40" xmlns="http://www.w3.org/2000/svg" xmlns:xlink="http://www.w3.org/1999/xlink">
<g id="graph0" class="graph" transform="scale(1 1) rotate(0) translate(4 306.4)">
<title>循环引用</title>
<polygon fill="#ffffff" stroke="transparent" points="-4,4 -4,-306.4 344.2273,-306.4 344.2273,4 -4,4"/>
<!-- 根 -->
<g id="node1" class="node">
<title>根</title>
<ellipse fill="none" stroke="#5441fa" cx="129.3504" cy="-284.4" rx="27" ry="18"/>
<text text-anchor="middle" x="129.3504" y="-280.2" font-family="Times,serif" font-size="14.00" fill="#5441fa">根</text>
</g>
<!-- 成员1 -->
<g id="node2" class="node">
<title>成员1</title>
<ellipse fill="none" stroke="#5441fa" cx="71.3504" cy="-195.6" rx="30.2015" ry="18"/>
<text text-anchor="middle" x="71.3504" y="-191.4" font-family="Times,serif" font-size="14.00" fill="#5441fa">成员1</text>
</g>
<!-- 根&#45;&gt;成员1 -->
<g id="edge1" class="edge">
<title>根&#45;&gt;成员1</title>
<path fill="none" stroke="#bf43f9" d="M118.441,-267.6974C109.9082,-254.6333 97.8962,-236.2425 88.1399,-221.3053"/>
<polygon fill="#bf43f9" stroke="#bf43f9" points="90.8068,-218.988 82.408,-212.5296 84.9462,-222.816 90.8068,-218.988"/>
<text text-anchor="middle" x="116.0727" y="-235.8" font-family="Times,serif" font-size="14.00" fill="#5441fa">sub</text>
</g>
<!-- 成员4 -->
<g id="node5" class="node">
<title>成员4</title>
<ellipse fill="none" stroke="#5441fa" cx="150.3504" cy="-195.6" rx="30.2015" ry="18"/>
<text text-anchor="middle" x="150.3504" y="-191.4" font-family="Times,serif" font-size="14.00" fill="#5441fa">成员4</text>
</g>
<!-- 根&#45;&gt;成员4 -->
<g id="edge5" class="edge">
<title>根&#45;&gt;成员4</title>
<path fill="none" stroke="#bf43f9" d="M133.6001,-266.43C136.5034,-254.153 140.4092,-237.6372 143.7188,-223.6421"/>
<polygon fill="#bf43f9" stroke="#bf43f9" points="147.2116,-224.0804 146.1071,-213.5433 140.3995,-222.4693 147.2116,-224.0804"/>
<text text-anchor="middle" x="152.0727" y="-235.8" font-family="Times,serif" font-size="14.00" fill="#5441fa">sub</text>
</g>
<!-- 成员2 -->
<g id="node3" class="node">
<title>成员2</title>
<ellipse fill="none" stroke="#5441fa" cx="30.3504" cy="-106.8" rx="30.2015" ry="18"/>
<text text-anchor="middle" x="30.3504" y="-102.6" font-family="Times,serif" font-size="14.00" fill="#5441fa">成员2</text>
</g>
<!-- 成员1&#45;&gt;成员2 -->
<g id="edge2" class="edge">
<title>成员1&#45;&gt;成员2</title>
<path fill="none" stroke="#bf43f9" d="M63.2501,-178.056C57.41,-165.4071 49.4192,-148.1002 42.7753,-133.7105"/>
<polygon fill="#bf43f9" stroke="#bf43f9" points="45.8034,-131.9194 38.4339,-124.3076 39.4481,-134.8538 45.8034,-131.9194"/>
<text text-anchor="middle" x="65.0727" y="-147" font-family="Times,serif" font-size="14.00" fill="#5441fa">sub</text>
</g>
<!-- 成员3 -->
<g id="node4" class="node">
<title>成员3</title>
<ellipse fill="none" stroke="#5441fa" cx="63.3504" cy="-18" rx="30.2015" ry="18"/>
<text text-anchor="middle" x="63.3504" y="-13.8" font-family="Times,serif" font-size="14.00" fill="#5441fa">成员3</text>
</g>
<!-- 成员2&#45;&gt;成员3 -->
<g id="edge3" class="edge">
<title>成员2&#45;&gt;成员3</title>
<path fill="none" stroke="#bf43f9" d="M37.0284,-88.83C41.6659,-76.3511 47.9308,-59.4928 53.1852,-45.3536"/>
<polygon fill="#bf43f9" stroke="#bf43f9" points="56.5922,-46.2331 56.7949,-35.6402 50.0306,-43.7947 56.5922,-46.2331"/>
<text text-anchor="middle" x="60.0727" y="-58.2" font-family="Times,serif" font-size="14.00" fill="#5441fa">sub</text>
</g>
<!-- 成员3&#45;&gt;成员1 -->
<g id="edge4" class="edge">
<title>成员3&#45;&gt;成员1</title>
<path fill="none" stroke="#bf43f9" d="M69.1027,-35.7758C70.7453,-41.5322 72.3573,-47.984 73.3504,-54 81.1626,-101.3258 81.1646,-130.3829 78.3504,-159.6 78.0904,-162.2995 77.7231,-165.0972 77.2915,-167.8859"/>
<polygon fill="#bf43f9" stroke="#bf43f9" points="73.842,-167.2932 75.5228,-177.7538 80.7322,-168.5282 73.842,-167.2932"/>
<text text-anchor="middle" x="90.0727" y="-102.6" font-family="Times,serif" font-size="14.00" fill="#5441fa">sub</text>
</g>
<!-- 对象1 -->
<g id="node6" class="node">
<title>对象1</title>
<ellipse fill="none" stroke="#5441fa" cx="298.3504" cy="-284.4" rx="41.7542" ry="18"/>
<text text-anchor="middle" x="298.3504" y="-280.2" font-family="Times,serif" font-size="14.00" fill="#5441fa">对象1</text>
</g>
<!-- 对象2 -->
<g id="node7" class="node">
<title>对象2</title>
<ellipse fill="none" stroke="#5441fa" cx="240.3504" cy="-195.6" rx="41.7542" ry="18"/>
<text text-anchor="middle" x="240.3504" y="-191.4" font-family="Times,serif" font-size="14.00" fill="#5441fa">对象2</text>
</g>
<!-- 对象1&#45;&gt;对象2 -->
<g id="edge6" class="edge">
<title>对象1&#45;&gt;对象2</title>
<path fill="none" stroke="#bf43f9" d="M286.8915,-266.856C278.4709,-253.9638 266.8899,-236.2329 257.387,-221.6837"/>
<polygon fill="#bf43f9" stroke="#bf43f9" points="260.1843,-219.566 251.7855,-213.1076 254.3237,-223.3939 260.1843,-219.566"/>
<text text-anchor="middle" x="285.0727" y="-235.8" font-family="Times,serif" font-size="14.00" fill="#5441fa">sub</text>
</g>
<!-- 对象3 -->
<g id="node8" class="node">
<title>对象3</title>
<ellipse fill="none" stroke="#5441fa" cx="290.3504" cy="-106.8" rx="41.7542" ry="18"/>
<text text-anchor="middle" x="290.3504" y="-102.6" font-family="Times,serif" font-size="14.00" fill="#5441fa">对象3</text>
</g>
<!-- 对象2&#45;&gt;对象3 -->
<g id="edge7" class="edge">
<title>对象2&#45;&gt;对象3</title>
<path fill="none" stroke="#bf43f9" d="M250.2288,-178.056C257.4194,-165.2855 267.2834,-147.767 275.4313,-133.2963"/>
<polygon fill="#bf43f9" stroke="#bf43f9" points="278.6359,-134.7385 280.4925,-124.3076 272.5364,-131.304 278.6359,-134.7385"/>
<text text-anchor="middle" x="280.0727" y="-147" font-family="Times,serif" font-size="14.00" fill="#5441fa">sub</text>
</g>
<!-- 对象3&#45;&gt;对象1 -->
<g id="edge8" class="edge">
<title>对象3&#45;&gt;对象1</title>
<path fill="none" stroke="#bf43f9" d="M291.9718,-125.1068C292.4481,-130.7758 292.9486,-137.0441 293.3504,-142.8 296.1031,-182.2332 297.2388,-192.0865 298.3504,-231.6 298.5737,-239.5375 298.6459,-248.1488 298.6436,-256.0692"/>
<polygon fill="#bf43f9" stroke="#bf43f9" points="295.1428,-256.2988 298.6017,-266.3131 302.1427,-256.3275 295.1428,-256.2988"/>
<text text-anchor="middle" x="308.0727" y="-191.4" font-family="Times,serif" font-size="14.00" fill="#5441fa">sub</text>
</g>
</g>
</svg>
